<svg xmlns="http://www.w3.org/2000/svg" xmlns:xlink="http://www.w3.org/1999/xlink" xml:space="preserve" width="1200" height="600" viewBox="0 0 317.5 158.75"><defs><clipPath id="c" clipPathUnits="userSpaceOnUse"><path stroke-width=".265" d="M182 65c-.93 7.88-2.006 14.862-2 23 .037 50.12 20.351 93.802 53 110 32.649-16.198 52.963-59.88 53-110 .006-8.138-1.07-15.12-2-23-21.899 9.982-40.682 5.573-51 0-10.318 5.573-29.101 9.982-51 0"/></clipPath><clipPath id="a" clipPathUnits="userSpaceOnUse"><path stroke-width=".265" d="M48.154 17.198c-.246 2.085-.53 3.932-.529 6.085.01 13.261 5.385 24.819 14.023 29.104 8.638-4.285 14.013-15.843 14.023-29.104.001-2.153-.283-4-.53-6.085-5.793 2.641-10.763 1.475-13.493 0-2.73 1.475-7.7 2.641-13.494 0"/></clipPath></defs><path fill="#d7111b" d="M0 0h317.5v158.75H0Z"/><path fill="#369d27" d="M49.336 36.524a15.54 15.54 0 0 0-3.034 9.249c0 8.621 6.99 15.61 15.61 15.61 8.622 0 15.61-6.989 15.61-15.61 0-3.463-1.126-6.662-3.034-9.251a13 13 0 0 1 .39 3.166c0 7.16-5.805 12.964-12.966 12.964s-12.964-5.804-12.964-12.964c0-1.092.134-2.151.388-3.164"/><path fill="#ffec00" d="M46.627 14.553v.002c-1.403.027-4.44.592-5.24 4.862 0 0-2.65 1.945-5.001 5.972 0 0-.274-.549.525-1.51 0 0 2.511-2.676.753-8.26 0 0-4.166 4.667-1.872 8.717 0 0 .411.458.434 1.236 0 0-2.42 3.936-3.037 8.055 0 0-.525-1.19-.342-1.945 0 0 1.141-2.974.73-5.033 0 0-.594-2.564-1.759-3.96 0 0-3.79 4.713-.365 8.328 0 0 .274.208.73 1.42l.457 1.213.32 1.03s-.754 4.85-.252 7.665c0 0-1.187-1.534-1.21-2.701 0 0 .824-5.17-3.058-8.58 0 0-2.171 4.6.158 7.277 0 0 1.028 1.188 1.758 1.897 0 0 2.033 2.152 2.512 3.456 0 0 .64 4.417 1.279 5.493 0 0-1.803-.8-2.145-3.57 0 0-.333-3.306-4.294-5.492 0 0-1.405 5.286 3.402 7.848 0 0 2.947 1.487 3.54 2.7 0 0 2.192 4.714 3.311 5.903 0 0-1.05-.16-2.032-1.258 0 0-2.329-5.765-6.964-6.223 0 0-.092 5.812 6.324 7.345 0 0 2.079.182 3.084.708 0 0 2.487 3.181 4.634 4.92 0 0-2.398-.023-2.97-1.213 0 0-1.803-3.845-7.649-3.707 0 0 .938 5.196 7.697 5.219 0 0 3.013-.162 3.767.365 0 0 3.744 2.86 6.05 3.729 0 0-1.437.183-2.465-.252 0 0-5.459-3.82-9.523-1.12 0 0 2.034 4.141 9.523 2.265 0 0 3.127-.526 3.72-.297 0 0 4.454 1.715 5.847 1.921 0 0-1.438.893-3.768-.114 0 0-3.081-1.761-6.62 1.076 0 0 2.898 3.684 8.652.618 0 0 2.284-1.443 3.357-1.26l1.62.275s-3.035 3.111-5.843 4.736c0 0-.617.253-.092.482 0 0 2.285 1.053 4.226 1.144 0 0 2.756-2.781 3.376-6.009.62 3.228 3.377 6.01 3.377 6.01 1.941-.092 4.226-1.145 4.226-1.145.525-.23-.092-.482-.092-.482-2.808-1.625-5.844-4.736-5.844-4.736l1.62-.275c1.074-.183 3.358 1.26 3.358 1.26 5.754 3.066 8.652-.618 8.652-.618-3.539-2.837-6.62-1.077-6.62-1.077-2.33 1.007-3.768.115-3.768.115 1.393-.206 5.846-1.92 5.846-1.92.594-.23 3.72.296 3.72.296 7.49 1.876 9.524-2.264 9.524-2.264-4.064-2.7-9.523 1.119-9.523 1.119-1.028.435-2.466.252-2.466.252 2.307-.87 6.051-3.73 6.051-3.73.754-.526 3.767-.364 3.767-.364 6.76-.023 7.697-5.22 7.697-5.22-5.846-.137-7.65 3.708-7.65 3.708-.57 1.19-2.969 1.213-2.969 1.213 2.147-1.739 4.634-4.92 4.634-4.92 1.005-.526 3.084-.708 3.084-.708 6.416-1.533 6.324-7.345 6.324-7.345-4.635.457-6.964 6.223-6.964 6.223-.982 1.098-2.032 1.258-2.032 1.258 1.119-1.19 3.31-5.903 3.31-5.903.594-1.213 3.541-2.7 3.541-2.7 4.807-2.562 3.402-7.848 3.402-7.848-3.961 2.186-4.294 5.492-4.294 5.492-.342 2.769-2.145 3.57-2.145 3.57.64-1.076 1.278-5.493 1.278-5.493.48-1.304 2.512-3.456 2.512-3.456.731-.709 1.76-1.897 1.76-1.897 2.328-2.677.157-7.277.157-7.277-3.882 3.41-3.058 8.58-3.058 8.58-.023 1.167-1.21 2.7-1.21 2.7.502-2.814-.252-7.664-.252-7.664l.32-1.03.457-1.213c.456-1.212.73-1.42.73-1.42 3.425-3.615-.365-8.328-.365-8.328-1.165 1.396-1.759 3.96-1.759 3.96-.411 2.059.73 5.033.73 5.033.183.755-.342 1.945-.342 1.945-.616-4.119-3.037-8.055-3.037-8.055.023-.778.434-1.236.434-1.236 2.294-4.05-1.872-8.716-1.872-8.716-1.758 5.583.753 8.26.753 8.26.8.96.525 1.509.525 1.509-2.352-4.027-5-5.972-5-5.972-.8-4.27-3.838-4.835-5.241-4.862v-.002a6 6 0 0 0-.258.002c-.287.007-.46.035-.46.035.376 5.057 5.617 5.605 5.617 5.605 2.923 2.563 4.476 5.49 4.476 5.49-.685-.274-1.05-.686-1.05-.686-2.843-4.622-7.605-3.844-7.605-3.844 1.93 5.228 7.673 5.195 7.673 5.195 1.587.08 2.01 1.166 2.01 1.166 1.325 2.197 2.237 6.34 2.237 6.34-.365-.367-.845-.95-.845-.95-2.215-6.053-6.896-5.824-6.896-5.824 1.438 6.017 6.119 6.383 6.119 6.383.868.183 1.806 1.465 1.806 1.465.525 3.592.296 6.522.296 6.522-.023-.23-.388-.894-.388-.894-.343-.64-.525-2.036-.525-2.036-.822-4.233-4.728-4.965-4.728-4.965-.765 5.468 4.91 7.516 4.91 7.516 1.598 1.42-.662 7.653-.662 7.653a23 23 0 0 1-.137-1.074c.49-6.556-4.5-7.482-4.5-7.482-.033 3.135.481 4.209.481 4.209.491 1.419 2.99 3.251 2.99 3.251.617.595.824 1.625.824 1.625-.388 2.63-4.066 7.641-4.066 7.641-.045-1.12.367-1.876.367-1.876 2.626-4.76-.663-7.872-.663-7.872-3.197 4.234-.41 7.484-.41 7.484.433.8.25 2.86.25 2.86-1.051 1.578-4.726 4.643-4.726 4.643l.022-.137c.456-1.396.891-1.9.891-1.9 3.06-3.592.069-7.869.069-7.869-2.832 3.192-1.622 7.07-1.622 7.07.776 1.842-.069 3.134-.069 3.134-1.404 1.67-5.777 3.546-5.777 3.546.753-.892 1.667-1.738 1.667-1.738 3.288-2.62 1.622-7.321 1.622-7.321-4.282 2.414-3.22 7.413-3.22 7.413-.138 1.807-1.416 2.264-1.416 2.264-1.872.823-4.567 1.397-4.567 1.397.274-.504.753-.664.753-.664 4.658-2.63 3.29-6.705 3.29-6.705-4.408 1.694-4.293 6.635-4.293 6.635-.046 1.007-.89 1.053-.89 1.053l-1.486.207c1.838-1.144 1.69-2.358 1.69-2.358-.205-3.009-4.087-2.036-4.087-2.036s-3.881-.973-4.087 2.036c0 0-.147 1.214 1.69 2.358l-1.485-.207s-.844-.046-.89-1.053c0 0 .115-4.941-4.292-6.635 0 0-1.37 4.074 3.289 6.705 0 0 .48.16.753.663 0 0-2.695-.573-4.567-1.396 0 0-1.278-.457-1.415-2.264 0 0 1.06-5-3.22-7.413 0 0-1.667 4.701 1.621 7.321 0 0 .913.846 1.667 1.738 0 0-4.373-1.876-5.778-3.546 0 0-.844-1.292-.068-3.134 0 0 1.21-3.878-1.622-7.07 0 0-2.991 4.277.068 7.87 0 0 .436.503.892 1.9l.022.136s-3.675-3.065-4.726-4.644c0 0-.184-2.058.25-2.86 0 0 2.787-3.25-.41-7.483 0 0-3.29 3.113-.663 7.872 0 0 .412.755.367 1.876 0 0-3.678-5.01-4.066-7.641 0 0 .207-1.03.824-1.625 0 0 2.499-1.832 2.99-3.251 0 0 .514-1.074.48-4.209 0 0-4.99.926-4.499 7.482 0 0-.09.845-.137 1.074 0 0-2.26-6.234-.661-7.653 0 0 5.674-2.048 4.909-7.516 0 0-3.906.732-4.728 4.965 0 0-.182 1.396-.525 2.036 0 0-.365.665-.388.894 0 0-.229-2.93.296-6.522 0 0 .938-1.282 1.806-1.465 0 0 4.68-.366 6.12-6.383 0 0-4.682-.229-6.897 5.823 0 0-.48.584-.845.95 0 0 .912-4.142 2.237-6.339 0 0 .423-1.086 2.01-1.166 0 0 5.743.033 7.673-5.195 0 0-4.762-.778-7.605 3.844 0 0-.365.412-1.05.686 0 0 1.553-2.927 4.476-5.49 0 0 5.241-.548 5.618-5.605 0 0-.174-.028-.461-.035a6 6 0 0 0-.258-.002m15.285 50.466c.625 0 1.132.206 1.132.459s-.507.458-1.132.458-1.132-.206-1.132-.458.508-.458 1.132-.459m0 2.118c.52 0 .941.206.941.459 0 .252-.42.457-.94.458-.52 0-.941-.206-.941-.458 0-.253.42-.458.94-.459m0 1.588c.468 0 .846.257.846.573s-.378.571-.846.572c-.467-.001-.845-.256-.845-.572s.378-.572.845-.573m-2.785-3.11c.003-.001.275-.046.275.502 0 0-.059.699.227 1.213 0 0 .434.617.456.868 0 0-.591.023-1.071-1.373 0 0-.297-1.279.113-1.21m5.684 1.21c-.48 1.396-1.072 1.373-1.072 1.373.023-.251.457-.868.457-.868.285-.514.227-1.213.227-1.213 0-.548.272-.503.275-.503.41-.068.113 1.211.113 1.211"/><path fill="#ffec00" d="M48.419 17.198c-.246 2.085-.531 3.932-.53 6.085.01 13.261 5.385 24.819 14.023 29.104 8.639-4.285 14.014-15.843 14.024-29.104.001-2.153-.284-4-.53-6.085-5.794 2.641-10.764 1.475-13.494 0-2.73 1.475-7.7 2.641-13.493 0"/><g clip-path="url(#a)" transform="translate(.265)"><path id="b" fill="none" stroke="#fff" stroke-dasharray="none" stroke-linecap="butt" stroke-linejoin="miter" stroke-opacity="1" stroke-width=".397" d="M49.1 16.272v37.042"/><use xlink:href="#b" transform="translate(1.673)"/><use xlink:href="#b" transform="translate(3.346)"/><use xlink:href="#b" transform="translate(5.02)"/><use xlink:href="#b" transform="translate(6.692)"/><use xlink:href="#b" transform="translate(8.366)"/><use xlink:href="#b" transform="translate(10.039)"/><use xlink:href="#b" transform="translate(11.712)"/><use xlink:href="#b" transform="translate(13.385)"/><use xlink:href="#b" transform="translate(15.058)"/><use xlink:href="#b" transform="translate(16.731)"/><use xlink:href="#b" transform="translate(18.404)"/><use xlink:href="#b" transform="translate(20.077)"/><use xlink:href="#b" transform="translate(21.75)"/><use xlink:href="#b" transform="translate(23.423)"/><use xlink:href="#b" transform="translate(25.096)"/></g><path fill="none" stroke="#fff" stroke-width="26" d="m174 164 126-74" clip-path="url(#c)" transform="translate(.265)scale(.26458)"/><path fill="#ffec00" d="M70.145 26.723c-.622.459-1.255.91-1.81 1.45-.172.167-.366.325-.473.544-.042.088-.023.187-.006.278.026.141.021.291.077.423.113.267.393.409.653.493.23.074.452.182.69.22.108.018.197.16.054.212-.686.25-1.227.834-1.482 1.526-.1.272-.11.566-.162.85-.024.134-.14.25-.28.244-.177.012-.29-.16-.337-.315-.045-.153-.032-.313-.044-.469-.054-.105-.1.128-.13.173-.113.298-.101.656.09.917.131.18.341.324.569.32.234-.004.408-.187.53-.37.125-.186.16-.416.185-.635.026-.217.019-.437.083-.65.15-.504.544-.888.977-1.166.16-.102.297-.239.399-.398.115-.053.25-.018.365.014.41.112.84.196 1.266.142.218-.027.449-.13.543-.347.136-.31.035-.663-.103-.954a3 3 0 0 0-.224-.39l-.235.582c.128.117.274.248.301.427.022.146-.13.21-.245.234-.382.081-.781-.005-1.137-.148a22 22 0 0 0-1.846-.628c-.103-.03-.264-.145-.168-.258.08-.095.183-.167.278-.247l1.555-1.3c.02-.259.038-.518.067-.774m-2.037.337-.01.459.453.046.01-.494zm1.94 1.308-.046.506q.209.065.42.115a12 12 0 0 1 .079-.529 13 13 0 0 0-.454-.092m-4.37 1.779c-.312-.003-.598.2-.744.471-.138.257-.234.54-.267.83-.023.203-.01.456.179.577.154.099.343.051.515.048.16-.003.352-.043.48.066.1.087-.005.215-.074.284a2.3 2.3 0 0 1-.6.403c-.354.18-.744.337-1.15.307a.8.8 0 0 1-.633-.442 1.6 1.6 0 0 1-.14-.444c-.05.396-.046.813.108 1.187a.77.77 0 0 0 .6.468c.381.047.757-.09 1.093-.255.262-.129.523-.266.74-.466.251-.23.431-.567.39-.916-.028-.222-.097-.453-.254-.62-.1-.107-.254-.121-.398-.102-.15.02-.364.034-.44-.12-.073-.152-.004-.324.057-.467.058-.138.2-.25.36-.212.17.04.267.259.453.23.151-.022.211-.194.236-.328a.404.404 0 0 0-.227-.438.7.7 0 0 0-.284-.061m-4.839 1.919-.034.527-.567-.011q.01.322.023.643l.634.046.069-.494.487.024.057-.701zm1.001 1.351c-.313.004-.591.21-.757.473-.149.239-.224.557-.089.818.105.202.29.386.527.401.296.02.546-.19.722-.41q.142-.18.252-.383c.117.018.207.138.173.258-.055.197-.198.357-.348.486-.42.362-.876.702-1.4.888-.29.102-.646.157-.908-.034-.159-.116-.285-.271-.42-.414q-.219-.228-.431-.46l-.227.47c.232.187.457.41.563.696a.46.46 0 0 1-.126.502c-.245.216-.575.288-.885.35-.145-.002-.02.182.015.256.07.145.208.306.382.265.344-.08.691-.235.918-.518a.84.84 0 0 0 .176-.54c.283.133.613.11.908.038.459-.11.895-.32 1.273-.602.355-.264.695-.577.888-.985a.9.9 0 0 0-.02-.828c-.118-.2-.3-.353-.488-.482-.205-.14-.445-.248-.698-.245m3.739.199-.113.447-.363-.114-.181.413.476.298.136-.493.385.195.136-.528zm-3.79.338c.092.003.278.036.201.165-.045.173-.195.34-.382.334-.156-.006-.145-.183-.09-.296.05-.106.146-.203.27-.203M57.64 35.78c-.104.31-.388.51-.663.654-.188.1-.393.154-.597.213-.307.088-.645.17-.873.405-.15.154-.27.39-.178.605.099.232.33.374.553.465-.093-.17-.117-.398.015-.555a1.04 1.04 0 0 1 .724-.348c.068-.004.238-.073.144.048-.222.487-.424 1.001-.438 1.544-.008.318.097.656.351.859.32.253.747.304 1.14.273.265-.021.521-.105.765-.208.433-.183.83-.513.99-.971.048-.14.079-.287.074-.435-.462.365-.961.715-1.535.863-.308.08-.68.122-.942-.085a1.03 1.03 0 0 1-.375-.914c.038-.328.186-.634.37-.903.236-.348.522-.661.838-.936z"/></svg>