<svg xmlns="http://www.w3.org/2000/svg" xml:space="preserve" width="1440" height="720"><defs><clipPath id="a" clipPathUnits="userSpaceOnUse"><path d="M0 0h1080v540H0Z" style="clip-rule:evenodd"/></clipPath><clipPath id="b" clipPathUnits="userSpaceOnUse"><path d="M0 540h1080V0H0" style="clip-rule:evenodd"/></clipPath><clipPath id="c" clipPathUnits="userSpaceOnUse"><path d="M0 540h1080V0H0" style="clip-rule:evenodd"/></clipPath></defs><g clip-path="url(#a)" transform="matrix(1.33333 0 0 -1.33333 0 720)"><path d="M0 0h1080v540H0Z" style="fill:#c00;fill-opacity:.98824002;fill-rule:evenodd;stroke:none"/></g><path d="m463.78 345.72-3.05-2.77c-20.18-20.18-32.66-48.06-32.66-78.86 0-61.6 49.92-111.53 111.51-111.53s111.51 49.93 111.51 111.53c0 30.8-12.48 58.68-32.66 78.86l-3.05 2.77 1.46-.88c36.75-24.84 60.92-66.9 60.92-114.6 0-76.33-61.87-138.2-138.18-138.2S401.4 153.91 401.4 230.24c0 47.7 24.17 89.76 60.92 114.6z" style="fill:#fff;fill-opacity:1;fill-rule:evenodd;stroke:none" transform="matrix(1.33333 0 0 -1.33333 0 720)"/><path d="M490.56 346.12h37.45l11.57 37.4 11.57-37.4h37.45L558.3 323l11.58-37.4-30.3 23.12-30.3-23.12 11.58 37.4zm-20.28-159.28h12.12v208.68h-12.12Zm126.48 0h12.12v208.68h-12.12z" style="fill:#fff;fill-opacity:1;fill-rule:evenodd;stroke:none" transform="matrix(1.33333 0 0 -1.33333 0 720)"/><g clip-path="url(#b)" transform="matrix(1.33333 0 0 -1.33333 0 720)"><path d="M459.72 372.12v25.16l16.62 12.76 16.62-12.76v-25.16l-16.62 12.76z" style="fill:#fff;fill-opacity:1;fill-rule:evenodd;stroke:none"/></g><g clip-path="url(#c)" transform="matrix(1.33333 0 0 -1.33333 0 720)"><path d="M586.2 372.12v25.16l16.62 12.76 16.62-12.76v-25.16l-16.62 12.76z" style="fill:#fff;fill-opacity:1;fill-rule:evenodd;stroke:none"/></g><path d="m463.44 421.74 12.96 26.22 12.96-26.22-12.96-26.22zm126.36 0 12.96 26.22 12.96-26.22-12.96-26.22zm-225.26-43.5c12.65.2 26.29-7.94 39.5-18.26l7.24-5.94 16.57 14.49c1.75-14.89-.77-26.91 7.87-35.58 38.86-39.01 91.93-92.41 99-112.99-23.75 4.52-90.93 73.74-119.66 89.65-14.81 8.21-34.88 1.43-56.68-1.8l35.41 30.95-3.02 4.31c-11.91 12.88-32.4 10.66-41.65-.35-.49 5.58-5.43 15.94-10.72 18.33 7.74 12.17 16.66 17.03 26.14 17.19m350.92 0c-12.65.2-26.29-7.94-39.5-18.24l-7.24-5.94-16.57 14.48c-1.75-14.89.77-26.89-7.87-35.55-38.86-38.99-91.93-92.34-99-112.91 23.75 4.52 90.93 73.68 119.66 89.58 14.81 8.21 34.88 1.43 56.68-1.8l-35.41 30.93 3.02 4.31c11.91 12.87 32.4 10.65 41.65-.35.49 5.57 5.43 15.92 10.72 18.32-7.74 12.16-16.66 17.01-26.14 17.17" style="fill:#fff;fill-opacity:1;fill-rule:evenodd;stroke:none" transform="matrix(1.33333 0 0 -1.33333 0 720)"/></svg>