<svg xmlns="http://www.w3.org/2000/svg" width="1024" height="512"><path fill="#3771c8" d="M0 0h1024v512H0z"/><path fill="#fff" d="M341.333 0H1024v512H341.333z"/><path fill="#ff0" d="M682.667 0H1024v512H682.667z"/><g stroke-width="2.394"><path fill="#161413" d="M625.558 409.959s.473-2.96-3.056-2.798l-.679-3.469s-.177-1.77-1.305-.64c0 0-2.36 2.41-4.528 1.996l-.473-4.777s-.227-1.085-2.17-.634c0 0-3.454.9-4.32.907 0 0-1.112-3.25-.482-5.645 0 0 1.264-3.707-3.263-1.711l-4.737 2.651-1.782-5.633s-.23-1.303-1.737-.636l-4.312 1.991-.063-7.606s.114-1.852-1.956-.851c0 0-4.863 2.207-5.63-.166 0 0-.945-6.005-3.302-6.272l-6.03 3.314-1.564-5.202-5.607 2.004-3.745-7.573s-.665-1.732-2.385-.196l-6.87 6.363s-2.912-1.9-3.941-5.615c0 0-.533-2.109-2.82-.41l-6.022 4.182s-1.29.662-1.953-.636l-.663-1.296-1.32-2.598s-.736-1.353-2.169-.415c0 0-5.803 4.182-7.525 5.718 0 0-1.384 1.276-2.817-.41 0 0-4.82-7.026-5.675-5.817l-4.065 5.252s-1.923 3.06-1.957-.851l-2.533-121.837s1.718-7.84 11.442 2.668c0 0-3.435 3.291-3.823 8.51 0 0-.392 4.567-1.246 5.878 0 0-1.276 2.62.467 3.907 0 0 .66 1.3.02 2.391 0 0-1.257 4.576 1.998 5.415 0 0 3.251.84 4.357 3.437 0 0 1.54 3.247 4.572 3.22 0 0 3.248.19 4.552 1.047 0 0 4.772.828 4.961-2.218 0 0 .794-5.274 3.37-10.46 0 0 7.222-20.823-16.003-23.329 0 0-1.755-3.026-6.996-8.194l-5.025-5.171s1.869-33.483 1.621-37.176c0 0-1.738-.855-2.606-1.064l.82-5.223s.412-2.394-2.191-3.023c0 0-1.294-14.87 15.816-13.283 0 0 9.605.63 9.568 20.448 0 0 3.255 1.276 4.284-4.82 0 0 1.48-4.141 2.805-.894 0 0 1.573 6.506-.784 9.135 0 0-2.789 2.85 1.104 2.164 0 0 .662 1.948 1.523 1.288l.86-.658 4.304-2.863s4.19 8.438-6.482 25.917c0 0-2.142 2.919.877 1.297l8.609-5.729s2.16-.452 2.835 2.367c0 0 .464 3.69 1.981 3.894 0 0 .409.03.198-1.74 0 0-.73-9.121 3.183-7.199 0 0 .11 4.568 3.933 4.093 0 0 1.059-3.051-2.493-12.798 0 0-.886-2.384 1.274-2.836 0 0 3.244-.681 3.452-1.554 0 0 .259-.458-1.744-1.07 0 0-6.732-2.548-3.94-5.181 0 0 2.895-.963 5.401-1.134 0 0 5.521-1.186 6.243-3.967 0 0 .639-1.31-1.522-.855 0 0-2.933.17-6.938-1.025 0 0-2.6-.413-4.765-.61 0 0 .831-3.92 3.855-4.599 0 0 5.183-1.13 4.947-3.52l-9.742-.132s-.443-1.3 2.784-3.5c0 0 6.461-3.32 3.201-5.028 0 0-3.878 2.207-11.46 1.406 0 0-.709-7.166.563-10.003 0 0 .793-1.897-.656-.861 0 0-3.227 2.419-5.614 1.57 0 0-.245-3.475 1.901-5.232 0 0 .617-1.485-.875-1.296 0 0-4.303 3.079-6.258 2.227 0 0-1.085-.206.2-1.739 0 0 1.928-2.407.201-1.958 0 0-4.32 1.342-6.457 4.185 0 0-1.07 1.314-1.946.018 0 0-.882-1.731-1.514.014 0 0-1.013 8.05-17.26 6.237 0 0 13.944-14.032 34.089-12.036 0 0 7.804 1.67 11.803 13.152 0 0 2.782-3.502 2.331-5.454 0 0-.91-4.99 1.706-2.623 0 0 3.703 2.14 8.3 8.4 0 0 1.734.203 1.067-1.748 0 0-1.575-7.156-3.771-10.614 0 0-.236-2.17 3.862-3.728 0 0 2.595-.459.418-1.743 0 0-5.4.918-5.634-.819 0 0-.233-1.954 1.701-3.492 0 0 3.01-1.982 2.341-4.368 0 0-1.72 1.104-4.966 1.35l-3.243.246-3.68.032s2.354-3.28 1.9-5.45l-8.198 3.115s-2.8 1.33-1.97-2.373l1.015-7.831s-6.424 7.662-9.891 7.04c0 0-1.53-1.288 1.668-6.968 0 0-.595-.645-1.512.231 0 0-6.224 5.922-8.396 5.29 0 0-.019-2.174 1.46-6.097 0 0 1.632-2.94.015-2.074-.32.171-.68.339-.68.339s-7.66 3.328-13.284 14.897c0 0-4.24 9.816-11.543 16.182 0 0-.724-8.467 7.195-18.534l10.497-12.046s9.922-9.118 18.836.702c0 0-.184-6.71 3.411-5.897 0 0 6.296 2.334 9.106 1.874 0 0-1.71-7.565-5.052-8.43l-2.821-.844s-2.607-1.28-.673-2.601c0 0 4.936-4.827 2.34-4.367 0 0-3.653 2.421-5.177 1.783 0 0-2.17-.85-3.89.689 0 0-2.152 1.32-3.24.679 0 0-.545-3.542.813-5.875 0 0 .817-2.021-1.09-1.295 0 0-3.453 1.336-6.888 4.407 0 0-2.36 2.196-2.166-.197 0 0 .817-5.44-.467-3.909l-6.207 7.881s-1.93 2.624-2.165-.198l.394-4.352s-7.745 5.287-10.263 14.218c0 0-.154 6.955-1.67 6.968 0 0-1.308-1.073-.293-8.907 0 0 4.568-22.207-4.372-29.517 0 0-2.539-.797-3.004 3.07 0 0-1.731 12.186-1.899 17.837 0 0-1.126 7.4.735 22.16 0 0 1.897 18.673-.624 27.386 0 0-5.009-3.65-4.686-16.039 0 0 1.13-19.133-2.604-25.402 0 0-1.31-1.295-1.286 1.532 0 0 .268 5.864-1.246 5.878 0 0-1.316-1.944-1.128-5.206l.188-3.262s.574-4.375-1.31-1.508c0 0-2.145 2.41-2.394-1.284l-.27-6.083s-.45-1.95-1.515.013c0 0-2.108 6.323-3.639 4.597 0 0-2.443-7.15-7.244-11.67 0 0-1.298.228-.85 1.964 0 0 2.67 8.234-1.024 6.527 0 0-6.519-2.983-8.501-6.878 0 0-1.964-1.939-1.728.45 0 0 2.214 3.956.47 4.126 0 0-3.009.554-4.779-1.914 0 0-2.398-1.935-1.943.67 0 0 2.005 6.283.706 6.294 0 0-2.81.243-4.984-.823 0 0-4.929-2.008-4.547-.178.225 1.083.879 1.512 2.192 3.24 0 0 2.403 2.369.027 3.043 0 0-5.826 2.008-10.917 13.786 0 0-.715 2.633 2.6.195 0 0 18.663-18.855 37.465 2.71l-2.357 2.629-9.168-8.83s-1.932 1.974.92 6.294c0 0 2.28 3.005.486 5.864 0 0-14.56-15.316-15.054-13.775 0 0-1.718 1.538 2.007 6.938 0 0 .935 4.121-.83 4.134 0 0-6.61-.517-11.888-1.161 0 0-2.262-.182-3.6-.729 0 0-1.118 1.91 2.111 3.401 0 0 9.694 5.042 3.269 5.86 0 0-5.103.807-11.193-3.32 0 0-1.476 4.192 4.623 9.267 0 0 1.714 1.127.21 2.47 0 0-4.322 3.266-5.405 9.164 0 0-.528 4.564-1.832 6.856 0 0 2.844.734 5.84-2.9l2.44-2.304s1.507-.582 1.905 1.693c0 0 .076 8.549 1.967 8.532 0 0 .804.194 1.495-2.292 0 0 5.454-22.047 21.96-19.762 0 0 12.117 1.032 23.372 11.57 0 0-.558.954-4.342.988 0 0-4.975-6.414-17.678-9.532 0 0-3.035-.732-.934 1.34 0 0 5.142 3.943 3.26 5.099 0 0-8.72-2.012-14.198-1.013 0 0-.56.953.96 1.7 0 0 5.7 2.609 2.681 3.587 0 0-7.951-.5-12.646 3.34 0 0 1.53 1.886 5.13 2.613 0 0-7.535 3.677-10.336 7.693 0 0-.56 1.143 1.333 1.126 0 0 9.451-.844 7.2 1.076 0 0-8.288 4.254-12.537 16.069 0 0-.17 1.901 1.711.744 0 0 6.018-4.042 6.04-1.573 0 0-.62 15.392 1.094 16.707 0 0 1.155 2.46 5.432-6.127 0 0 2.38-6.112 5.66-1.76l4.397 5.281s1.919 3.02 2.459-.023c0 0 1.281-4.951.855-10.456 0 0 .426-1.609 1.32-.391 0 0 .128 4.362 2.292 2.45l-.02-2.28s5.096-1.563 5.126 2.044l.032 3.61s-.944 3.493.62 5.883l.026 3.037s-.167 2.474 1.141.563l1.307-1.91 1.867-2.868s1.12-1.72 2.077-.4c0 0 4.417 7.37 11.8 7.873l.654-11.592s2.46-.213.898-5.517c0 0-.777-2.273.541-3.043 0 0 .851-.797-.017-1.9 0 0-1.163-3.22 1.097-4.378 0 0 .554-1.044-.403-2.656 0 0-1.988-11.003 1.402-12.93 0 0 1.884-.777 1.899.932l.015 1.71s-2.322 52.698-1.41 82.462l1.37 106.687s-1.463 5.667-6.71-.156c0 0-2.412-3.675-4.553-1.048 0 0-1.06 2.62-2.153 1.324l-3.71-3.227-1.497 1.752s-.83 1.434-2.39-1.066c0 0-1.135-1.778-2.602-.41l-3.436 3.071s-5.904-6.9-8.507-7.529l-5.768 8.527s-1.488 3.055-2.805.893c0 0-1.624-2.419-2.818-.41-.457.77-.64 1.094-.64 1.094s-.478 1.134-1.725.664c0 0-1.833-2.003-2.913.322-.829 1.778-.963 2.106-.963 2.106l-1.904 4.796s-1.277 2.62-3.027.461c0 0-3.276-3.445-3.676.25l-.409 2.83s-.411 2.395-2.37 1.11c0 0-2.074-1.968-3.033-.193l-2.13 3.93s-1.5 1.752-2.592.675l-1.09-1.078s-1.834-2.399-2.596.024c-.552 1.754-.843 2.616-.843 2.616s-.464 2.668-2.803 1.329l-2.827-1.495-1.267 3.486s-.575 2.207-2.592.458c0 0-2.184-2.154-3.027.461l-.842 2.615s-.838 3.268-2.365 1.761c0 0-2.738-3.56-3.678.25l-.839 3.052-4.33-.398s-3.467-.404-1.06 2.833l2.409 3.24s.777 2.166-1.485 3.272c14.768 5.117 24.07 4.133 31.667 1.007 7.597-3.125 13.489-8.392 26.312-10.86 14.053-2.259 31.73-1.758 31.73-1.758 10.936-3.748 21.1-3.144 32.386-2.26 0 0 9.423 3.537 16.96 2.328 0 0 5.832-.743 12.787-.506 41.048.643 66.342 16.55 71.658 4.198z"/><path fill="#008f33" d="M489.573 402.039c-27.726-2.577-44.071 9.084-44.071 9.084l-7.577-.149c-.226-1.087.18-4.134.18-4.134.226-1.879 2.801-.84 2.801-.84l2.926.23c1.267-3.488 2.669-4.462 2.669-4.462l3.687.84c2.85.707 2.83-1.493 2.83-1.493s-.008-.986.385-2.015c.662-1.732 1.94-1.104 1.94-1.104l2.828 1.713c2.617 2.368 4.927-5.693 4.927-5.693s-.03-.017.85-1.747c.682-1.339 1.726-.667 1.726-.667l3.922 3.009c2.173 1.067 2.577-2.196 2.577-2.196l.2-1.957c-.02-2.392 1.726-.67 1.726-.67l2.615 2.15c2.18 1.72 4.08-3.729 4.08-3.729 1.078-2.51 2.808-.676 2.808-.676l3.056 3.013c2.18 1.723 4.316-1.34 4.316-1.34 2.68-2.928 4.765.39 4.765.39l1.751 2.16c1.75 2.157 3.252.623 3.252.623l1.928-2.19c1.925-2.625 4.34 1.264 4.34 1.264 2.19 2.798 3.462-.247 3.462-.247 2.766-5.24 6.055-.487 6.055-.487 2.027 2.615 3.472.835 3.472.835l4.923-5.91c.952-.789 1.732.42 1.732.42l3.292 4.751 2.138-2.627c.856-1.31 2.165-.02 2.165-.02l1.531 1.726c1.748 1.722 3.253.84 3.253.84l3.223-2.635 1.024 1.68c1.382 2.413 4.18-.423 4.18-.423 1.073-1.314 1.514-.23 1.514-.23l3.274 3.232 1.937-1.54c1.502-1.1 2.16-.238 2.16-.238l1.98 3.46 3.012-2.2 1.316 2.161c1.101 2.165 3.895.183 3.895.183 3.022-.895 3.038.626 3.038.626l.233 2.169 3.893-.686c1.178-.425 1.304.64 1.304.64l.665 1.735c.668 2.382 2.607 1.279 2.607 1.279l1.51-.665 2.193 3.24 3.237-1.114c3.255 1.058.242 3.04.242 3.04-5.617 1.137-13.22-2.056-13.22-2.056-13.247-5.317-34.622.741-34.622.741-2.375.674-3.901-.398-3.901-.398-21.272-7.419-39.181-1.392-39.181-1.392-1.94 1.104-4.973.696-4.973.696m123.417 6.075-.69-4.775s-1.525-.854-3.244.466c0 0-2.164.02-3.036-.842l-.266-5.214s-.873-1.08-2.595-.194l-1.725.883-2.153 1.106s-1.767.947-2.182-1.718l-.24-2.824s-.79-3.189-3.69-1.053c0 0-4.294 4.167-3.918-2.357l.191-3.042s.234-2.368-2.392-1.283l-2.585 1.108s-2.8 1.548-3.05-2.145l-.247-3.692s-.46-2.604-2.394-1.284l-1.937 1.322-2.366 1.54s-1.737-.417-1.975-3.023c0 0 .187-3.26-2.394-1.718l-2.583 1.761s-2.616-1.931-2.854-4.32c0 0-.247-3.69-1.983-4.11l-6.656 5.925s-1.936 1.538-3.255-.84l-2.42-4.541s-1.528-1.291-3.89.686l-3.008 2.416s-1.927 2.409-3.894.034l-2.411-3.021s-1.097-1.73-3.029.026l-1.934 1.757-2.791 2.416s-2.138 2.843-4.544-.178l-2.406-3.02s-1.752-2.373-2.818-.627l-1.067 1.747-4.704 6.78s-.692 1.845 1.112 3.25c1.71 1.33 1.743 1.287 1.743 1.287s2.18 1.937 3.464.185l4.714-5.47s1.29-1.953 2.541-.391c.838 1.055 1.3 1.806 1.3 1.806s1.99 3.547 3.108 1.562l1.274-2.836s.637-1.825 2.25.23l1.666 2.127s1.547 2.773 3.477 1.49l2.361-2.193s1.932-1.54 2.385.628c0 0 .247 3.477 2.614 1.716l1.717-1.536s.735-1.226 1.522.638c.905 2.157.884 2.164.884 2.164s.446 1.738 2.165.416l1.723-1.318s1.932-1.756 2.597.195c0 0 .035 3.91 1.974 2.59 0 0 2.355-2.631 3.026-.244l.02 1.958s.884 2.598 3.68.398c0 0 4.517-3.08 4.977.175 0 0 .03 3.259 2.182 1.72 0 0 2.363-1.979 2.811-.244l.887 2.167s.45 2.384 2.173 1.283c0 0 1.934-1.538 2.165-.017 0 0-.396 4.13 2.618 2.582l1.723-1.101s1.936-1.32 2.39 1.065c0 0 .244 3.258 1.752 2.373 0 0 3.246-1.74 2.825 1.063 0 0-.478 3.306 5.876 3.86 0 0 7.584 1.236 9.318 1.437 0 0 2.819.615 4.121.833m-204.899 6.598s13.172-3.376 18.788-4.51l2.775-4.588 4.127 1.701s.867.209 1.5-1.536l.635-1.744.847-2.18s1.058-2.618 2.806-.677l1.75 1.94s.652.428 1.288-1.096l1.48-3.925s.848-2.181 3.025-.679l2.177 1.502s.835.727 1.292-.665c.582-1.76.635-1.744.635-1.744l1.268-3.486s.632-1.963 2.162-.238l1.53 1.725 1.797 1.994 4.208-8.35s1.056-2.835 2.805-.894l1.75 1.94s3.277 3.665 3.244-.246c0 0 .172-5 2.34-4.583l3.703 2.793s1.96 1.504 3.24-.684l1.28-2.183 1.066-1.965 5.013 4.086s1.751 2.154 3.9.4l2.149-1.758 1.503-1.318 4.155 4.96s1.198 1.442 2.593-.456c1.646-2.239 1.713-2.188 1.713-2.188s1.283-1.752 2.807-.68l1.525 1.076s2.187 2.586 3.252.621l1.064-1.963s.733-.914-1.105-2.598c-1.247-1.145-1.308-1.077-1.308-1.077s-3.916-3.86-5.388-2.385l-1.325 1.792s-.42 1.526-3.252-.624l-2.834-2.145s-1.718-1.936-2.382-.196c0 0-1.477 4.359-3.228 1.986l-1.753-2.378s-1.971-2.59-3.24.682c0 0-.415 2.176-1.942.667 0 0-1.54-2.81-3.041-1.274 0 0-2.776 4.369-5.618 1.135l-2.843-3.235s-2.72-3.865-4.127-1.7l-5.77 8.308-1.308-1.075s-1.39-1.475-1.947.017c-.58 1.55-.636 1.526-.636 1.526s-.673 2.143-2.15 1.54l-1.524-.856s-1.523-1.073-2.363 1.98l-.62 3.265s-.622 3.263-2.794 2.413l-2.17-.85s-2.247-1.24-2.802 1.33l-.84 3.05s-.072 1.691-1.724.885c-1.914-.936-1.954-.852-1.954-.852s-1.956-.854-3.019 1.33l-1.063 2.183s-.632 1.96-1.938 1.103l-1.306-.858s-1.836-1.529-2.284-.37c-.484 1.248-.735 1.701-.735 1.701l-.842 2.615s-.134 1.15-1.944.451c-2.177-.84-2.171-.849-2.171-.849s-2.16-1.161-2.376.674c0 0-.396 4.132-1.486 3.27l-1.09-.858s-1.966-2.155-2.813.024l-1.056 3.051s-1.049 3.707-3.66 1.992l-2.174-1.07s-.206 1.09.237 2.39c0 0 .446 1.518-1.72 1.32 0 0-2.6-.414-1.506 1.098zM534.41 129.51s8.415-2.847 13.798.039c0 0 1.958 1.287 1.617-.502l-.34-1.79-.341-1.791s2.592-.838 4.553.611c0 0 2.287 1.938 5.686.928 0 0 .12-4.888-10.255-3.657l-.652.007 2.565-3.447s1.447-1.804-1.143-1.13c0 0-6.32 1.522-10.65 7.101 0 0-1.94 1.159-1.146-.802l4.468-8.842s.626-2.614-.987-1.295c0 0-4.37 1.18-8.148 14.741zm-5.815 3.473c6.45-5.11 4.569-15.848 4.569-15.848-7.913 4.47-4.57 15.848-4.57 15.848m-5.3 6.241s2.73-3.12 2.85-7.849l.121-4.728s.4-9.945-1.53-7.971c0 0-3.793 3.236-3.179 7.362 0 0 1.37 8.3 1.739 13.186m-5.77 8.201 2.247-2.953s-.056-6.357.74-8.158c0 0 .751-6.85-.56-8.306 0 0-.817-.644-1.443 2.132 0 0-.606 4.894-1.246 6.04 0 0-.959 1.639-.774 4.246l.186 2.606s.21 5.539.85 4.393m-8.101 1.701.434 12.383c2.115.634 2.178-10.613 2.178-10.613.281-2.99-.365-4.56-.365-4.56-1.32-2.434-2.672-8.615-2.672-8.615-1.401 6.859.425 11.405.425 11.405m-1.484-21.011 2.835 8.612.838 2.927c.837 2.925 1.142.641 1.142.641l.274-5.705.134-3.262c.135-3.261-2.676-8.94-2.676-8.94l-.829-1.95c-.828-1.947-1.792-.635-1.792-.635zm.79-20.87c-.037 7.014 3.357 12.52 3.357 12.52l.996 2.6c.997 2.597 1.088-5.553 1.088-5.553l.116-5.215c.118-5.216-2.837-8.775-2.837-8.775-2.297-2.914-2.72 4.423-2.72 4.423m-2.441 81.292s-.204 1.187-.23 2.507c-.047 2.443 1.464.475 1.464.475 2.965-13.716 16.088-16.603 16.088-16.603-9.769-3.336-17.265 11.886-17.265 11.886zm23.984-12.376c6.849 3.36 9.873 15.232 9.873 15.232 2.565-3.77.735-8.808.735-8.808-.343-2.116 2.263-.998 2.263-.998 3.116 3.722 4.815 12.183 4.815 12.183 3.523-5.573.732-9.136.732-9.136-4.93-6.8-18.425-9.289-18.425-9.289-.81.007.007.816.007.816m-17.929 65.19-.293 3.425s3.564-.847 5.53 1.416c0 0 2.445 1.121-.01-1.302 0 0-2.786-2.908-5.226-3.538zm-6.844-3.2c1.963 1.613 3.9.617 3.9.617 3.214-2.329 3.17-8.664 3.17-8.664l-.14-15.973zm1.562-25.276c-1.273 2.944-2.186 9.636-2.186 9.636l.23 7.984c.154-1.144 3.628-12.094 3.628-12.094l1.267-3.596c1.268-3.598.244-9.13.244-9.13-.62 3.265-3.183 7.2-3.183 7.2m-1.844-6.829.024 2.934c.027 2.932.507 2.113.507 2.113 1.62-.177 3.474-10.951 3.474-10.951l-.065-7.334c-4.695 1.346-3.94 13.238-3.94 13.238m46.187-7.909c5.458-7.056.565-9.946.565-9.946-2.11.346-.565 9.946-.565 9.946m3.743.783c1.482 2.432 1.197 7.16 1.197 7.16 1.062-8.647-.737-10.262-.737-10.262-.814.008-.46 3.102-.46 3.102m-4.989 23.515c5.353-.373 5.55-15.045 5.55-15.045-1.548 8.489-5.55 15.045-5.55 15.045m8.46-16.375s-.272 6.196-1.553 8c0 0-1.283 1.968.063 7.334 0 0 1.146.97 1.127-1.149l-.018-2.12-.024-2.608s.145-2.12 1.615-.991l1.47 1.127s2.782 2.256 2.434-.184c0 0-.352-2.93-4.26-4.851 0 0-1.48-1.781.305-1.96l1.785-.178s3.083-.027.796-1.8c0 0-1.15-1.456-3.74-.62m-.544-6.677.186 2.933s.978.642 2.588-.838c0 0 3.547-3.129 4.357-3.136 0 0 2.494-1.62-1.155-2.108 0 0-3.249-.298-5.976 3.149m-.208-5.05 3.04-4.754s.341-.344.159-.653c-.343-.578-3.888.849-3.888.849-1.941.833.689 4.557.689 4.557m-2.49-6.01 4.483-7.21c-4.394-1.429-7.603 2.838-7.603 2.838zm-5.897-6.14c1.634 1.29 2.905-1.982 2.905-1.982 1.27-3.434-.074-8.312-.074-8.312-3.24.845-5.942 7.225-5.942 7.225-.314 1.307 3.111 3.07 3.111 3.07m-17.933-8.805 2.275.307s-.506-2.441.628-2.452c0 0-2.443-1.119-2.903 2.145m5.173-2.329c-.781 2.083.362 3.91.362 3.91l1.139.477c3.092.79 1.398-7.183 1.398-7.183-.502-1.624-2.899 2.796-2.899 2.796m9.554-3.018c-1.627.015-3.86 4.11-3.86 4.11-1.276 2.618-.121 4.891-.121 4.891l1.309.965c3.094 1.277 3.04-4.915 3.04-4.915.145-2.12.778-3.756.778-3.756.632-1.799-1.146-1.295-1.146-1.295m-35.318 7.648s3.67-7.204 6.746-8.045c0 0 5.167-3.144 6.609-5.274 0 0-10.043 2.371-13.851 12.345 0 0-.476 1.146.496.974m-2.156-5.197c-.634 1.8 1.14.643 1.14.643 1.76-2.95.934-4.572.934-4.572zm54.175-4.39.13-3.588c-.667-2.114-5.548-3.21-5.548-3.21.011 1.303 5.418 6.797 5.418 6.797m-12.757-10.97 4.543-.04s5.806-4.29 5.946-6.737c0 0-1.146-1.13-4.698 1.02 0 0-7.756 4.144-5.791 5.757m8.29 1.555s5.37 1.257 9.703-3.998c0 0 1.767-2.46-3.899-.78 0 0-6.312 2.338-5.803 4.778m4.892 2.239 7.672 5.148s2.121 1.284.479-1.147l-2.955-3.559s-.66-1.135.803-.984c0 0 2.758-.351 1.29-.826 0 0-10.232-.888-7.29 1.368m-38.298 1.153s10.935-11.668 10.552-18.185l-.506-2.275s-2.084 3.276-3.211 4.265c0 0-9.46 12.96-9.918 16.386 0 0 .336 1.138 3.083-.19m8.412-3.007s9.033-6.6 9.621-13.45c0 0-.497-1.3-2.107.181 0 0-8.216 7.407-10.925 13.136 0 0-.476 1.31 1.796.963 0 0 .81-.171 1.615-.83m10.965-8.41-3.379 3.453c-3.38 3.454-1.913 3.927-1.913 3.927 2.926.464 7.129-1.691 7.129-1.691 7.26-4.953 6.067-11.3 6.067-11.3-4.049 1.177-7.904 5.612-7.904 5.612m-44.684 31.527s-25.724 9.681-7.457 38.042c0 0 1.627.474.477-1.146l-1.15-1.618-2.31-4.217s-.836-2.764 1.128-.988l1.963 1.774 2.782 2.583s2.086-2.79-4.807-11.366c0 0-1.48-2.27.631-2.124 0 0 .814.318 1.8 1.614l.985 1.295s1.91 2.24 1.792.799c0 0 .62-3.43-5.265-8.103 0 0-1.817-3.407.467-2.124 0 0 2.615 2.097 3.606 3.88 0 0 2.941 2.093 1.612-1.316l-3.3-6.002s-.991-2.111-.023-2.772c0 0 1.448-1.317 2.281 1.121 0 0 1.166 3.25 1.654 3.246 0 0 .819.97.63-1.962 0 0 .259-7.5 2.51-9.802 0 0 1.618-.83-.006-.814m-4.652-12.182 5.23 3.865s-.028-2.933-4.614-7.618c0 0-.98-.809-.639 1.145 0 0 .663 1.623.023 2.608m-2.45-1.771s1.363-11.096-5.985-15.921c0 0-.32.492.503 1.789 0 0 3.288 4.698 3.004 9.263 0 0-1.117 2.13-1.939.996 0 0 .26-7.336-3.327-9.097 0 0-1.946.016-.913 7.015 0 0 .227.863 1.313 1.455 1.981 1.081 1.956 1.123 1.956 1.123zm-43.452 5.764s8.954-15.565 16.423-15.141c0 0 5.35-.7 15.61 3.122 0 0 .816.48.626-2.778 0 0 1.052-9.461-5.312-13.48 0 0 1.37 8.299-4.28 11.935 0 0-2.583 1.49-2.449-1.608l.295-3.425s.498-3.047-5.588-7.937c0 0-1.039-.825-1.134.335 0 0-.609 4.57 1.039 7.326 0 0 2.563 4.13.038 4.402 0 0-1.13.824-2.95-3.233 0 0-2.168-6.665-9.946-4.966 0 0-1.154.494.665 1.624 0 0 2.069 1.157 2.629 3.564 0 0 1 3.263 4.576 3.707 0 0 1.797 1.288.009.979 0 0-7.488-2.38-14.783-1.337 0 0-1.46.177.006.651l1.465.477 3.585 1.598s-10.168 6.61-8.816 12.627c0 0 1.3.152 2.909-1.49l1.608-1.647 6.763-6.089.495.81s-5.3 6.403-4.13 10.143zm44.86 6.774s-1.138-.317-2.258 1.648l-.48.656s2.422-1.325 2.738-2.304m-12.695 14.617c1.44-2.458.606-4.896.606-4.896-2.082 3.28-.606 4.896-.606 4.896m.672 21.02c1.592-3.6 3.537-3.943 3.537-3.943.263-7.012-2.01-7.154-2.01-7.154-3.042 4.915-1.527 11.097-1.527 11.097m-6.929-12.652.205 4.725s3.054-3.45-.205-4.725m6.473-2.177c4.21-1.34 2.721-4.587 2.721-4.587-3.242.519-2.72 4.587-2.72 4.587m4.715-17.808 4.331-5.74s1.61-1.482-2.443-.958c0 0-5.248-6.148-8.822-6.44 0 0-.317.817.344 2.277 0 0 1.836 5.689.866 6.187l-.97.496s-6.056-5.976-10.439-5.774c0 0 1.002 3.088 4.598 5.827 0 0 3.108 2.742 1.496 4.06 0 0-.805.824-2.93-.95 0 0-4.747-4.522-11.885-3.97 0 0 8.15 3.84 9.962 6.92 0 0 .668 2.112-1.447 1.481 0 0-11.083-5.118-15.265-.682 0 0 9.437 2.362 11.096 6.585 0 0 .014 1.63-3.073 1.333 0 0-11.058-2.35-14.856 8.606 0 0-.433 1.61 1.303.645l1.618-.671s2.71-.456 4.692-1.836c0 0 3.233-1.494 3.57-.03 0 0 .2.932-.8 1.31 0 0-5.156 2.14-5.125 8.031l.05 5.543s.506 2.113 1.628.473c0 0 5.292-7.218 5.417-11.455l-.016-1.794s1.944-.506 1.795 1.126l-.134 3.096s-.128 3.626 4.937 7.618c0 0 1.64 1.778 1.456-.503l-.182-2.28s-.618-4.905-2.336-7.15c0 0-1.68-6.504 1.236-7.182 0 0 2.807 5.515 5.572 6.144 0 0 2.117.63-.754-11.893 0 0-.352-3.254.619-3.427 0 0 1.776-1.157 2.292 2.26 0 0-.124 4.24 2.811 5.68 0 0 2.583-1.49 2.534-7.03 0 0 .42-7.665 3.972-9.814 0 0 1.616-.994 1.789.309 0 0 .21 5.378 1.493 3.572m7.825-33.153s-9.09-18.338-26.8-20.3c0 0-1.297.175 1.468.802 0 0 14.314 3.46 24.193 19.181 0 0 .828 1.949 1.139.317m-8.303-2.698 2.128 2.1c2.128 2.1 2.118.797 2.118.797l-5.08-5.335c-.965.986.834 2.438.834 2.438m-33.43-17.144c-2.908 1.655-.628 2.45-.628 2.45l5.33-3.144c-1.141-.48-4.702.694-4.702.694m46.626 22.893s1.397-7.346-.427-11.57c0 0-.662-1.46-1.448 1.482 0 0-1.904 4.743.741 10.26 0 0 .671 2.439 1.134-.172m-8.252-15.572c-1.434 3.27.2 4.56.2 4.56.986 1.133 2.791 3.398 2.791 3.398 2.116.634.595-6.197.595-6.197-.834-2.438-1.023-5.534-1.023-5.534-.503-1.787-2.563 3.773-2.563 3.773m-5.377-2.236 2.459 2.749s1.152 1.783 1.598-2.785c0 0 1.72-7.513-.418-10.588 0 0-2.896 2.958-3.027 6.381 0 0 .024 2.77-.612 4.243m-2.941-2.255s4.35-3.789 1.206-10.443l-1.659-4.058s-1.316-1.946-1.778.83c0 0-.541 3.318-.598 6.035 0 0 .046 6.852 2.829 7.636m-4.735-2.892s1.39-8.161-4.476-10.716c0 0-1.632-.966-.968.496 0 0 1.154 2.11 1.007 3.74 0 0 1.52 6.832 4.437 6.48m-5.21-2.073s.248-8.641-7.707-8.732c0 0-.644.493.017 1.955 0 0 2.334 6.825 6.559 7.44 0 0 1 .268 1.13-.663m-9.106-1.713s-1.813-3.078-5.863-2.228c0 0-.645.494.009 1.141 0 0 1.46 1.385 4.397 1.589 0 0 1.877.133 1.457-.502"/><path fill="#ac5341" d="m509.184 361.662-1.786.016c-1.785.016-1.613 1.156-1.613 1.156l.018 2.116c.83 1.95.028 3.097.028 3.097l.029 3.423c.03 3.423.681 3.58.681 3.58l1.476 1.617s.03-.03 1.802 1.777c1.373 1.4 1.79.635 1.79.635 1.284-1.64.6-5.546.6-5.546-.339-1.79-.068-7.822-.068-7.822l-.018-1.955c-.016-1.957-1.801-1.94-1.801-1.94zm1.282-1.804s1.861-.506 1.438-2.62l-.175-1.467s-.222-6.842.092-7.986c0 0 .381-2.856-1.649-2.92l-2.435.023s-1.955-.798-1.93 1.809c0 0-.068 1.63-.14 2.773 0 0-.47 1.797-.108 6.03 0 0-.288 4.24 1.336 4.227 0 0 2.596.058 3.571.13m-4.73-26.74c-.311 1.189-.16 5.92-.16 5.92l-.148 1.794c-.146 1.796.986 1.297.986 1.297.97-.336 1.463.313 1.463.313 2.767.627 3.08-.518 3.08-.518 1.436-2.946.103-6.845.103-6.845-.342-1.953-.2-4.236-.2-4.236s-.075.397.073-.898c.075-.652-.818-.807-.818-.807-.415.308-1.055-.074-1.055-.074-.652-.157-1.462.014-1.462.014-2.682-.383-1.862 4.04-1.862 4.04m-.713-19.989.187 2.77c-.143 2.2-.267 6.521-.267 6.521-.123 4.565 2.637 4.54 2.637 4.54l2.271-.021c1.623-.014 1.251-5.39 1.251-5.39-.343-2.115-.39-7.655-.39-7.655-.98-.807-5.689-.765-5.689-.765m.516-15.162c-1.95-.31-1.125 1.312-1.125 1.312s.03.288.095 1.63c.1 2.038.13 5.378.13 5.378-.536 5.94 3.455 5.348 3.455 5.348 3.084-.027 2.733-2.959 2.733-2.959-.514-3.09-.069-7.822-.069-7.822l.308-1.957c-.822-2.353-3.419-1.111-3.419-1.111zm1.119-20.383c-.486.167-1.788-.31-1.788-.31-.731-.076-.63 2.287-.63 2.287l.09 10.104.195 3.746c.195 3.748 3.916 2.248 3.916 2.248 1.134-.173 1.763-2.46 1.763-2.46l-.285-14.014c.142-2.284-3.26-1.601-3.26-1.601m.661-17.12c-1.135.092-1.784.178-1.784.178-2.037-.795-1.59 3.6-1.59 3.6.333 1.139-.113 5.707-.113 5.707-.446 4.73 1.667 5.037 1.667 5.037 1.378-.093 1.951.308 1.951.308 2.602.63 2.256-1.812 2.256-1.812l-.088-10.105c.29-3.912-2.299-2.913-2.299-2.913m1.131-19.078c-1.134.254-1.948-.065-1.948-.065-1.385-.64-1.783.26-1.783.26.23 2.202-.123 4.563-.123 4.563.357 3.747-.425 7.013-.425 7.013-.934 4.573 1.659 4.06 1.659 4.06l.568-.085 1.057.317c2.437.303 1.764-2.38 1.764-2.38-.516-3.417.223-11.736.223-11.736.53-2.234-.992-1.947-.992-1.947m29.038 16.856-1.463-.476c-1.948.018-.303 2.61-.303 2.61l1.979 3.405 2.742-1.98c-.815-.156-2.955-3.56-2.955-3.56m-2.807 12.9c-1.612 1.48.03 3.748.03 3.748l.988 1.132c.982 1.132 2.924.463 2.924.463 1.936-1.322-.511-2.766-.511-2.766-.486.005-2.129-2.1-2.129-2.1zm2.06-5.56c-1.294.174-.13 3.424-.13 3.424l1.312 1.618 1.306.966c1.307.965 1.627.15 1.627.15-.17-.651.796-1.475.796-1.475.968-.986-.183-2.117-.183-2.117l-2.289-2.262c-1.63-.8-2.438-.303-2.438-.303m-6.015-1.252s2.93.953 3.734-.032c0 0-.007-5.624-3.771-4.04-.95.398-1.597 2.946.037 4.072m.789 15.803.658.972c.655.974 1.155 2.273 1.155 2.273l1.146 1.13c1.467.802 2.426-.999 2.426-.999 1.914-3.765-3.948-5.995-3.948-5.995-2.928-.463-1.437 2.619-1.437 2.619m-5.038-.77c-.318 1.146.66 1.624.66 1.624-.635 1.473 1.487 2.76 1.487 2.76 2.114.469 2.095-1.65 2.095-1.65-.69-4.72-2.964-4.863-2.964-4.863-.812-.156-1.278 2.13-1.278 2.13m-6.112-12.006c-.856 2.431.682 3.417.682 3.417l2.415-2.14c2.095-1.322 1.432-3.273 1.432-3.273-.501-1.462-1.796-.962-1.796-.962-2.586 1.165-2.733 2.958-2.733 2.958m8.625 2.695c-1.762 2.623.851 4.718.851 4.718 1.461-.012 1.604-2.458 1.604-2.458.042-.744.149-1.47.149-1.47.791-2.123-.994-2.272-.994-2.272-1.139-.315-1.61 1.482-1.61 1.482m-7.743 5.283c.675 2.764 3.26 1.438 3.26 1.438 1.335-.468.954-1.965.954-1.965 2.262-1.16.621-3.102.621-3.102-.777-1.646-2.919.189-2.919.189-1.449.99-1.916 3.44-1.916 3.44m12.008-18.85c1.452-.664-.014-1.466-.014-1.466-1.297.337-1.953-.798-1.953-.798-1.313-1.292-1.785.18-1.785.18-.462 3.1 3.752 2.085 3.752 2.085m-10.839 4.01c.014 1.628 2.264-.836 2.264-.836-.01-.978 1.117-1.966 1.117-1.966-.494-.81-.977-.644-.977-.644-2.579-.111-2.404 3.446-2.404 3.446m5.062 3.864c1.972-.138.898-4.398-.2-4.398-1.103 0-2.736 4.605.2 4.398m-1.755 4.613c.333 1.002 3.84-1.136 3.32-2.428-.52-1.29-3.652 1.426-3.32 2.428"/></g></svg>