<svg xmlns="http://www.w3.org/2000/svg" width="1200" height="600"><path fill="#7cf" d="M0 0h600v400H0z"/><path fill="#002b7f" d="M600 300H0v-60c25.416-3.89 48.82-24.037 58.612-39.662 21.527 0 41.041-23.472 62.5-48.82 3.96-7.847 9.792-9.792 19.585-1.944 7.777 9.722 9.722 1.944 13.68-11.737 1.945-3.958 5.834-7.847 9.723-3.958 5.903 7.847 7.847 2.014 13.68-1.945 9.792-1.944 23.473-1.944 33.265 1.945 5.833-3.89 15.625-3.89 25.348-3.89 7.847 3.89 15.625 3.89 23.472 0 3.89-1.944 9.792-3.888 17.57-3.888 11.736-9.792 21.527-19.514 29.306-15.626 7.848 1.945 17.64 3.89 27.363 3.89 21.527 0 33.264-1.945 39.098-3.89 3.889 9.792 5.833 9.792 7.778 0 2.014-5.903 2.014-9.791 11.736-11.736 0-9.792 3.959-11.736 11.737-3.89 11.736 9.723 25.415 11.737 39.098 9.723 0 11.737 1.944 11.737 7.778 0 1.944-11.667 9.791-7.778 21.527 9.792 1.944 3.89 3.889 7.848 3.889 11.736C519.733 194.504 553.125 224.307 600 240z"/><g stroke-width="2"><path fill="#fff" d="M600 200v200h600V200z"/><path fill="#0484d6" d="M600 0h600v200H600z"/><path fill="#f5362f" d="M0 400h1200v200H0z"/></g></svg>