<svg xmlns="http://www.w3.org/2000/svg" xmlns:xlink="http://www.w3.org/1999/xlink" xml:space="preserve" width="1200" height="600"><defs><clipPath id="a" clipPathUnits="userSpaceOnUse"><path d="M0 0h1200v600H0z" style="fill:#fcd116"/></clipPath></defs><path d="M0 0h1200v600H0z" style="fill:#fcd116"/><path fill="#ce1126" d="M0-100v300l1200 600V500Z" clip-path="url(#a)"/><path d="M1200 600V400L400 0H0Z"/><g transform="rotate(16.57 615.535 302.262)"><path id="b" fill="#fcd116" fill-opacity="1" stroke="none" stroke-linecap="butt" stroke-linejoin="miter" stroke-opacity="1" stroke-width="1" d="m600 154.523-20.521 93.619-18.046 102.344-12.736 94.991L600 364.523l51.303 80.954-12.736-94.991-18.046-102.344z"/><use xlink:href="#b" transform="rotate(80 600 304.523)"/><path fill="#fcd116" d="m503.582 189.616 44.456 84.907 90.53 75.963 91.336 29.037-70.815-64.581-7.127-40.419 44.456-84.907-75.897 58.525H579.48z"/></g></svg>