<svg xmlns="http://www.w3.org/2000/svg" width="1200" height="600" viewBox="0 0 5376 2688"><path fill="#fff" d="M0 0h5376v2688H0z"/><path fill="#00356a" d="M0 896h5376v896H0z"/><path stroke="#dc241f" stroke-width="128" d="M0 192h5376M0 448h5376M0 704h5376M0 1984h5376M0 2240h5376M0 2496h5376"/><path fill="#ffd100" d="m1343.875 1064 24.967 170.8 96.6-143.033-51.8 164.733 149.1-87.033-118.067 126 172.2-13.767-161 62.3 161 62.3-172.2-13.767 118.067 126-149.1-87.033 51.8 164.733-96.6-143.033-24.967 170.8-24.966-170.8-96.6 143.033 51.8-164.733-149.1 87.033 118.066-126-172.2 13.767 161-62.3-161-62.3 172.2 13.767-118.066-126 149.1 87.033-51.8-164.733 96.6 143.033zm-140 7a298.667 298.667 0 1 0 0 546 336 336 0 1 1 0-546"/></svg>