<svg xmlns="http://www.w3.org/2000/svg" width="900" height="450" viewBox="0 0 672 336"><path fill="#003573" d="M0 0h672v336H0z"/><path fill="#fff" d="M0 0h672v224H0z"/><path fill="#dc221f" d="M0 0h672v112H0z"/><path fill="#fc0" d="m386.202 97.53 6.284 42.987 24.312-35.998-13.037 41.46 37.525-21.905-29.715 31.711 43.339-3.464L414.39 168l40.52 15.68-43.339-3.465 29.715 31.71-37.525-21.903 13.037 41.46-24.312-35.999-6.284 42.986-6.283-42.986-24.312 35.998 13.037-41.46-37.525 21.905 29.714-31.711-43.339 3.464L358.014 168l-40.52-15.68 43.34 3.465-29.715-31.71 37.525 21.903-13.037-41.46 24.312 35.999zm-35.235 1.762a75.167 75.167 0 1 0 0 137.416 84.563 84.563 0 1 1 0-137.416"/></svg>