<svg width="56" height="36" viewBox="0 0 56 36" fill="none" xmlns="http://www.w3.org/2000/svg">
<rect x="5.027" y="21.133" width="45.946" height="11.781" rx="5.891" fill="#37BEC7"/>
<path d="M10.971 22.621c2.742-4.391 7.913-6.297 12.535-4.439l4.494 1.807 4.494-1.807c4.622-1.858 9.793.048 12.535 4.439H10.971Z" fill="#2A939A"/>
<path d="M28 18.789c-5.207-3.991-8.872-7.397-8.872-11.214 0-2.811 2.086-4.913 4.807-4.913 1.74 0 3.29.904 4.065 2.269.775-1.365 2.325-2.269 4.065-2.269 2.721 0 4.807 2.102 4.807 4.913 0 3.817-3.665 7.223-8.872 11.214Z" fill="#FFBC8B"/>
<path d="M28 18.789c-5.207-3.991-8.872-7.397-8.872-11.214 0-2.811 2.086-4.913 4.807-4.913 1.74 0 3.29.904 4.065 2.269.775-1.365 2.325-2.269 4.065-2.269 2.721 0 4.807 2.102 4.807 4.913 0 3.817-3.665 7.223-8.872 11.214Z" stroke="#FF823C" stroke-width="2.2" stroke-linejoin="round"/>
<rect x=".924" y="30.211" width="54.152" height="3.661" rx="1.831" fill="#FF823C"/>
</svg>
