<svg width="52" height="32" viewBox="0 0 52 32" fill="none" xmlns="http://www.w3.org/2000/svg">
<rect x="0.09375" y="11.9228" width="51.8122" height="20.0772" rx="5.30092" fill="#37BEC7"/>
<rect x="14.8555" y="17.493" width="23.8542" height="2.65046" rx="1.32523" fill="#2A939A"/>
<circle cx="27.5775" cy="9.54161" r="9.54166" fill="#FF823C"/>
<circle cx="26.5177" cy="10.0717" r="9.54166" fill="#FFBC8B"/>
<path d="M29.0941 11.6196C29.0941 12.0083 28.9916 12.3688 28.7866 12.701C28.5887 13.0261 28.2919 13.2947 27.8961 13.5067C27.5074 13.7117 27.0444 13.8248 26.5072 13.846V14.7047H25.8287V13.8354C25.0795 13.7718 24.4752 13.5491 24.0158 13.1675C23.5564 12.7787 23.3126 12.2522 23.2843 11.5878H25.2138C25.2562 12.0119 25.4612 12.284 25.8287 12.4041V10.729C25.2774 10.5877 24.8357 10.4499 24.5035 10.3156C24.1784 10.1813 23.8921 9.9657 23.6447 9.66885C23.3974 9.372 23.2737 8.96559 23.2737 8.44964C23.2737 7.80646 23.5105 7.2905 23.984 6.90177C24.4646 6.51303 25.0795 6.29393 25.8287 6.24445V5.3857H26.5072V6.24445C27.2494 6.301 27.836 6.51657 28.2672 6.89117C28.6983 7.26576 28.9386 7.78526 28.9881 8.44964H27.0479C27.0055 8.06797 26.8253 7.82059 26.5072 7.70751V9.35079C27.0939 9.51336 27.5462 9.65825 27.8643 9.78547C28.1823 9.91269 28.4651 10.1247 28.7124 10.4216C28.9669 10.7114 29.0941 11.1107 29.0941 11.6196ZM25.1926 8.36482C25.1926 8.54152 25.2456 8.68995 25.3516 8.8101C25.4647 8.93025 25.6238 9.03627 25.8287 9.12816V7.6545C25.6308 7.68984 25.4753 7.76759 25.3622 7.88774C25.2492 8.00083 25.1926 8.15985 25.1926 8.36482ZM26.5072 12.4359C26.7193 12.4006 26.8854 12.3158 27.0055 12.1815C27.1328 12.0472 27.1964 11.8811 27.1964 11.6832C27.1964 11.4994 27.1363 11.351 27.0161 11.2379C26.903 11.1178 26.7334 11.0153 26.5072 10.9305V12.4359Z" fill="#FF823C"/>
</svg>

