<svg width="66" height="39" viewBox="0 0 66 39" fill="none" xmlns="http://www.w3.org/2000/svg">
<rect x="21.0601" y="7.2092" width="5.63218" height="28.6115" fill="#2A939A"/>
<path d="M21.6095 36.0459C21.6095 36.0459 16.8247 29.4606 21.6095 23.7351C26.3942 18.0096 37.5501 13.6538 42.371 7.88506C47.5996 14.1418 58.7554 18.0096 63.5402 23.7351C68.325 29.4606 63.5402 36.0459 63.5402 36.0459L21.6095 36.0459Z" fill="#37BEC7"/>
<path d="M2.51056 36.0459C2.51056 36.0459 -0.360304 32.0947 2.51055 28.6594C5.38141 25.2241 12.0749 22.6106 14.9675 19.1494C18.1047 22.9034 24.7981 25.2241 27.669 28.6594C30.5398 32.0947 27.669 36.046 27.669 36.046L2.51056 36.0459Z" fill="#2A939A"/>
<path d="M23.9885 0L26.9151 7.26551H20.8345L23.9885 0Z" fill="#2A939A"/>
<rect x="0.333496" y="36.0459" width="64.8827" height="2.47816" rx="1.23908" fill="#FFBC8B"/>
</svg>

