<svg width="56" height="36" viewBox="0 0 56 36" fill="none" xmlns="http://www.w3.org/2000/svg">
<path d="M4.161 27.328C4.161 27.328 .655 20.569 5.921 15.954 11.187 11.338 21.479 9.835 27.724 4.238c6.526 5.875 16.78 7.201 22.042 11.816 5.263 4.615 1.756 11.274 1.756 11.274H4.161Z" fill="#37BEC7"/>
<path d="M9.742 30.199c5.269-4.476 12.24-4.142 18.258-.863 6.018-3.279 12.99-3.613 18.258.863V16.724c-5.269-3.896-12.24-3.605-18.258-.75-6.018-2.855-12.99-3.146-18.258.75v13.475Z" fill="#FFBC8B"/>
<path d="M28 15.974v13.362" stroke="#FF823C" stroke-width="2.4" stroke-linecap="round"/>
<path d="M13.766 20.699c3.71-1.468 7.375-1.272 10.84.322M31.394 21.021c3.465-1.594 7.13-1.79 10.84-.322M13.766 25.182c3.71-1.469 7.375-1.272 10.84.322M31.394 25.504c3.465-1.594 7.13-1.791 10.84-.322" stroke="#2A939A" stroke-width="2.1" stroke-linecap="round"/>
<rect x="1.562" y="29.164" width="52.876" height="4.402" rx="2.201" fill="#2A939A"/>
</svg>
